# xmcd CD database file
#
# Track frame offsets:
#	150
#	16570
#	31565
#	51554
#	62798
#	82935
#	102741
#	118627
#	145713
#	167754
#
# Disc length: 2413 seconds
#
# Revision: 2
# Processed by: cddbd v1.5.2PL0 Copyright (c) Steve Scherf et al.
# Submitted via: CDex 1.51
#
DISCID=79096b0a
DTITLE=Jeff Bridges - Jeff Bridges
DYEAR=2011
DGENRE=Country
TTITLE0=What a Little Bit of Love Can Do
TTITLE1=Falling Short
TTITLE2=Everything But Love
TTITLE3=Tumbling Vine
TTITLE4=Nothing Yet
TTITLE5=Blue Car
TTITLE6=Maybe I Missed the Point
TTITLE7=Slow Boat
TTITLE8=Either Way
TTITLE9=The Quest
EXTD=YEAR: 2011
EXTT0=
EXTT1=
EXTT2=
EXTT3=
EXTT4=
EXTT5=
EXTT6=
EXTT7=
EXTT8=
EXTT9=
PLAYORDER=
